<?xml version="1.0" standalone="no"?>
<!DOCTYPE svg PUBLIC "-//W3C//DTD SVG 20010904//EN"
 "http://www.w3.org/TR/2001/REC-SVG-20010904/DTD/svg10.dtd">
<svg version="1.0" xmlns="http://www.w3.org/2000/svg"
 width="1300.000000pt" height="1390.000000pt" viewBox="0 0 1300.000000 1390.000000"
 preserveAspectRatio="xMidYMid meet">
<metadata>
Created by potrace 1.16, written by Peter Selinger 2001-2019
</metadata>
<g transform="translate(0.000000,1390.000000) scale(0.100000,-0.100000)"
fill="#000000" stroke="none">
<path d="M6425 11413 c-154 -14 -311 -83 -465 -204 -219 -172 -423 -331 -643
-502 l-229 -177 -186 0 c-103 0 -509 -1 -902 -3 l-715 -2 -5 -702 -5 -701 -62
-49 c-87 -69 -107 -84 -413 -321 -151 -118 -312 -243 -357 -278 l-83 -64 1
-2365 0 -2365 4135 0 4134 0 0 2368 -1 2367 -220 170 c-121 94 -249 193 -284
220 -35 28 -142 111 -239 185 l-175 135 0 702 -1 703 -902 0 -901 0 -94 72
c-52 40 -129 100 -172 133 -68 52 -217 168 -626 487 -111 86 -212 139 -319
168 -73 19 -200 30 -271 23z m198 -289 c108 -28 96 -19 667 -463 85 -67 156
-124 157 -128 3 -7 -1896 -8 -1902 -1 -1 2 110 91 248 198 459 357 458 356
544 384 93 30 196 34 286 10z m2817 -2112 l0 -1229 -622 -484 c-343 -266 -660
-513 -705 -549 -149 -118 -343 -269 -534 -414 -126 -95 -150 -117 -144 -126 3
-4 -1 -7 -9 -6 -7 0 -89 -57 -182 -129 -539 -417 -528 -409 -642 -434 -107
-22 -233 -6 -330 43 -43 22 -225 159 -618 467 -66 52 -566 441 -1112 864
l-992 770 0 1228 0 1227 2945 0 2945 0 0 -1228z m-6162 -816 l-3 -195 -65 50
c-36 28 -84 64 -106 82 -23 18 -96 75 -164 127 -67 52 -131 102 -142 111 -19
15 -16 18 79 92 54 41 166 128 248 192 l150 117 3 -191 c1 -104 1 -277 0 -385z
m6551 492 c233 -178 380 -293 380 -300 1 -4 -34 -34 -76 -67 -43 -33 -153
-118 -246 -190 -92 -72 -169 -131 -172 -131 -3 0 -5 173 -5 385 0 212 2 385 5
385 3 0 54 -37 114 -82z m-6719 -908 c245 -190 457 -355 471 -365 15 -11 177
-137 360 -280 184 -143 346 -269 360 -280 15 -11 166 -128 335 -261 170 -132
336 -261 369 -287 173 -133 230 -180 230 -187 0 -5 -46 -44 -101 -87 -56 -43
-220 -170 -365 -283 -1460 -1137 -2123 -1650 -2126 -1647 -3 3 -4 1051 -3
3645 0 312 3 392 13 386 6 -5 212 -164 457 -354z m7250 -1660 c0 -1111 -2
-2020 -5 -2020 -8 0 -1349 1039 -2058 1594 -71 56 -144 112 -162 126 -18 14
-79 61 -136 106 -57 44 -136 105 -176 135 -40 29 -72 56 -72 59 0 4 264 210
422 330 18 14 183 142 366 285 183 143 345 269 360 280 14 11 238 184 496 384
422 327 585 455 865 674 47 36 88 66 93 67 4 0 7 -909 7 -2020z m-1910 -890
c470 -365 1028 -799 1240 -963 212 -165 389 -303 395 -308 5 -5 -1498 -9
-3589 -9 l-3598 0 144 113 c1228 957 2413 1872 2426 1871 16 0 99 -63 450
-337 166 -129 219 -161 329 -200 84 -30 95 -32 243 -32 260 0 323 28 680 306
135 104 270 209 300 233 l55 42 35 -25 c20 -14 420 -325 890 -691z"/>
<path d="M6247 9294 c-581 -70 -919 -357 -992 -844 -28 -180 -17 -429 25 -597
24 -97 104 -259 164 -335 128 -161 362 -291 616 -342 180 -36 490 -48 685 -26
215 25 461 90 620 164 144 68 187 115 165 182 -28 85 -123 84 -298 -5 -418
-211 -1056 -215 -1399 -9 -119 71 -229 203 -278 332 -70 187 -81 509 -24 731
66 257 253 435 538 511 159 42 518 58 726 33 325 -40 533 -161 633 -369 73
-152 95 -303 83 -551 -9 -172 -32 -231 -107 -275 -95 -56 -247 -31 -302 50
-40 59 -43 88 -42 425 0 205 -3 335 -10 356 -13 40 -45 55 -119 55 -66 0 -104
-22 -115 -65 l-6 -25 -49 30 c-110 68 -260 99 -395 81 -244 -33 -406 -155
-477 -362 -30 -88 -38 -285 -15 -382 59 -251 255 -402 542 -415 180 -8 335 40
446 138 l45 39 29 -30 c34 -36 129 -84 204 -104 30 -8 97 -15 149 -15 210 0
347 74 420 228 45 97 54 173 48 425 -4 189 -8 235 -27 307 -60 225 -175 376
-381 501 -236 142 -700 211 -1102 163z m372 -721 c135 -45 203 -190 188 -398
-11 -155 -61 -249 -159 -298 -154 -78 -360 -50 -462 63 -74 82 -106 215 -86
356 23 168 98 255 250 291 67 15 204 8 269 -14z"/>
<path d="M3247 893 c1789 -2 4717 -2 6505 0 1789 1 326 2 -3252 2 -3578 0
-5041 -1 -3253 -2z"/>
<path d="M1008 762 c-15 -3 -18 -15 -18 -77 0 -69 2 -74 23 -77 32 -5 80 9 95
29 18 25 15 87 -5 105 -19 16 -66 26 -95 20z"/>
<path d="M990 410 l0 -80 45 0 c59 0 95 32 95 84 0 51 -31 76 -92 76 l-48 0 0
-80z"/>
</g>
</svg>
